<svg version="1.1" viewBox="0.0 0.0 960.0 224.58005249343833" fill="none" stroke="none" stroke-linecap="square" stroke-miterlimit="10" xmlns:xlink="http://www.w3.org/1999/xlink" xmlns="http://www.w3.org/2000/svg"><clipPath id="p.0"><path d="m0 0l960.0 0l0 224.58005l-960.0 0l0 -224.58005z" clip-rule="nonzero"/></clipPath><g clip-path="url(#p.0)"><path fill="#000000" fill-opacity="0.0" d="m0 0l960.0 0l0 224.58005l-960.0 0z" fill-rule="evenodd"/><path fill="#000000" fill-opacity="0.0" d="m0 -50.372322l960.0 0l0 352.28345l-960.0 0z" fill-rule="evenodd"/><path fill="#ffffff" d="m33.343903 222.30766l0 -204.0625l124.546875 0l0 32.40625l-81.703125 0l0 51.21875l61.9375 0l0 31.718742l-61.9375 0l0 55.625l90.359375 0l0 33.09375l-133.20312 0z" fill-rule="nonzero"/><path fill="#7dcbff" d="m178.49533 222.30766l56.03125 -81.15625l0.6875 9.0625l-56.71875 -80.89062l46.140625 0l26.375 40.921875l10.703125 17.999992l-10.578125 0l9.203125 -18.140617l25.40625 -40.78125l45.875 0l-57.265625 80.06249l0 -10.578125l58.359375 83.5l-46.6875 0l-27.609375 -43.53125l-10.703125 -17.984375l11.8125 0l-8.9375 18.125l-25.265625 43.390625l-46.828125 0z" fill-rule="nonzero"/><path fill="#ffffff" d="m417.59128 224.51079q-20.0625 0 -34.078125 -6.515625q-14.0 -6.53125 -22.578125 -17.921875q-8.578125 -11.40625 -12.421875 -26.171875q-3.84375 -14.765625 -3.71875 -31.25q0.421875 -24.437492 10.234375 -41.187492q9.828125 -16.765625 26.78125 -25.40625q16.953125 -8.65625 38.515625 -8.65625q26.921875 0 42.984375 11.265625q16.078125 11.25 23.078125 29.859375q7.0 18.609375 6.59375 40.453117q-0.28125 24.578125 -10.03125 41.40625q-9.75 16.8125 -26.640625 25.46875q-16.890625 8.65625 -38.71875 8.65625zm1.09375 -29.25q16.34375 0.125 23.75 -12.234375q7.421875 -12.359375 7.421875 -35.84375q0 -13.859375 -3.03125 -25.249992q-3.015625 -11.40625 -9.671875 -18.265625q-6.65625 -6.875 -17.640625 -7.015625q-16.484375 -0.140625 -23.90625 12.015625q-7.40625 12.15625 -7.40625 35.093742q0 14.0 3.015625 25.75q3.015625 11.734375 9.671875 18.75q6.671875 7.0 17.796875 7.0zm152.2952 29.25q-14.015625 0 -23.140625 -4.59375q-9.125 -4.609375 -13.59375 -14.625q-4.46875 -10.03125 -4.46875 -26.515625l0 -80.74999l-18.53125 0l0 -22.390625q10.15625 -2.875 16.265625 -5.484375q6.109375 -2.609375 8.859375 -9.0625q1.375 -3.15625 2.953125 -7.40625q1.578125 -4.265625 3.359375 -9.203125q1.796875 -4.953125 3.71875 -10.03125l25.265625 0l0 34.875l41.0625 0l0 28.703125l-41.0625 0l0 63.031242q0 14.5625 1.5 21.21875q1.515625 6.65625 5.21875 8.515625q3.71875 1.859375 10.71875 1.859375q3.578125 0 8.234375 -0.890625q4.671875 -0.90625 8.921875 -2.265625q4.265625 -1.375 6.609375 -2.890625l5.484375 23.484375q-3.703125 3.296875 -11.125 6.65625q-7.40625 3.359375 -16.890625 5.5625q-9.46875 2.203125 -19.359375 2.203125zm139.52551 0q-35.296875 0 -54.109375 -21.015625q-18.8125 -21.015625 -18.8125 -58.09375q0 -22.249992 8.578125 -39.828117q8.59375 -17.578125 24.921875 -27.796875q16.34375 -10.234375 39.96875 -10.375q11.953125 -0.140625 22.796875 3.03125q10.84375 3.15625 19.359375 10.234375q8.515625 7.0625 13.65625 18.671875q5.15625 11.59375 5.296875 28.34375q0 8.390617 -0.28125 15.531242q-0.265625 7.140625 -1.21875 12.21875l-110.5625 0l2.75 -22.65625l70.3125 0q0.6875 -11.124992 -1.171875 -19.562492q-1.84375 -8.453125 -7.203125 -13.1875q-5.359375 -4.75 -15.109375 -4.75q-9.46875 0 -16.546875 5.21875q-7.0625 5.21875 -10.84375 17.921875q-3.78125 12.703117 -3.234375 34.953117q0.546875 14.96875 5.828125 23.96875q5.296875 8.984375 14.421875 12.90625q9.140625 3.90625 21.234375 3.90625q6.578125 0 14.40625 -1.09375q7.828125 -1.09375 14.828125 -2.953125q7.015625 -1.859375 10.71875 -3.78125l7.0 22.796875q-5.078125 4.125 -13.9375 7.625q-8.859375 3.5 -20.046875 5.625q-11.1875 2.140625 -23.0 2.140625zm235.38208 -155.1875l-101.90625 108.21874l1.921875 -8.921875l0.5625 26.5l0 27.1875l-41.0625 0l0 -90.90625l0 -131.84375l41.0625 0l0 98.1875l-1.65625 46.421867l-6.453125 -6.171875l59.328125 -68.67187l48.203125 0zm-85.828125 84.18749l27.734375 -28.437492l62.890625 97.23437l-46.828125 0l-43.796875 -68.796875z" fill-rule="nonzero"/></g></svg>