<svg version="1.1" viewBox="0.0 0.0 1124.0734908136483 1470.6902887139108" fill="none" stroke="none" stroke-linecap="square" stroke-miterlimit="10" xmlns:xlink="http://www.w3.org/1999/xlink" xmlns="http://www.w3.org/2000/svg"><clipPath id="p.0"><path d="m0 0l1124.0735 0l0 1470.6903l-1124.0735 0l0 -1470.6903z" clip-rule="nonzero"/></clipPath><g clip-path="url(#p.0)"><path fill="#000000" fill-opacity="0.0" d="m0 0l1124.0735 0l0 1470.6903l-1124.0735 0z" fill-rule="evenodd"/><path fill="#2a2d2e" d="m0 0l1125.1339 0l0 237.5433l-1125.1339 0z" fill-rule="evenodd"/><path fill="#333839" d="m0 360.0l1125.1339 0l0 208.81891l-1125.1339 0z" fill-rule="evenodd"/><path fill="#2a2d2e" d="m0 667.31757l1125.1339 0l0 165.51184l-1125.1339 0z" fill-rule="evenodd"/><path fill="#333839" d="m-134.33736 125.25776c24.295708 -29.154861 113.380135 86.653984 220.28084 90.70341c106.900696 4.0494385 277.5096 -65.59711 421.12335 -66.40683c143.61377 -0.80970764 313.95233 62.088364 440.55908 61.54857c126.60675 -0.5398102 244.30487 -70.186356 319.08136 -64.7874c74.77649 5.398941 134.43652 61.54767 129.5774 97.18109c-4.859131 35.63344 83.95361 92.05382 -158.7323 116.61943c-242.68585 24.565613 -1068.7349 69.91733 -1297.3832 30.774261c-228.6483 -39.143036 -98.80228 -236.47768 -74.50656 -265.63254z" fill-rule="evenodd"/><path fill="#2a2d2e" d="m-100.42135 447.19214c24.295708 -29.154846 113.38014 86.65399 220.28084 90.70343c106.9007 4.0494385 277.5096 -65.59714 421.12335 -66.40683c143.61371 -0.8097229 313.95233 62.08835 440.55908 61.548553c126.60675 -0.5397949 244.30487 -70.18637 319.08136 -64.787415c74.77649 5.3989563 134.43652 61.54767 129.5774 97.18109c-4.859131 35.633423 83.95361 92.05383 -158.7323 116.619446c-242.68591 24.565613 -1068.7349 69.9173 -1297.3832 30.774292c-228.64828 -39.143066 -98.80228 -236.47772 -74.50656 -265.63257z" fill-rule="evenodd"/><path fill="#2a2d2e" d="m0 680.0l1125.1339 0l0 237.54333l-1125.1339 0z" fill-rule="evenodd"/><path fill="#333839" d="m0 1000.0l1125.1339 0l0 208.81885l-1125.1339 0z" fill-rule="evenodd"/><path fill="#2a2d2e" d="m0 1307.3176l1125.1339 0l0 165.51172l-1125.1339 0z" fill-rule="evenodd"/><path fill="#333839" d="m-134.33736 765.25775c24.295708 -29.154846 113.380135 86.65399 220.28084 90.70343c106.900696 4.0494385 277.5096 -65.59711 421.12335 -66.40686c143.61377 -0.8096924 313.95233 62.08838 440.55908 61.548584c126.60675 -0.5397949 244.30487 -70.18634 319.08136 -64.787415c74.77649 5.398987 134.43652 61.54767 129.5774 97.18109c-4.859131 35.633423 83.95361 92.05383 -158.7323 116.619446c-242.68585 24.565613 -1068.7349 69.9173 -1297.3832 30.774231c-228.6483 -39.143005 -98.80228 -236.47766 -74.50656 -265.6325z" fill-rule="evenodd"/><path fill="#2a2d2e" d="m-100.42135 1087.1921c24.295708 -29.154907 113.38014 86.65393 220.28084 90.70337c106.9007 4.0494385 277.5096 -65.597046 421.12335 -66.40674c143.61371 -0.80981445 313.95233 62.08838 440.55908 61.548462c126.60675 -0.5397949 244.30487 -70.18628 319.08136 -64.78735c74.77649 5.398926 134.43652 61.54773 129.5774 97.18115c-4.859131 35.633423 83.95361 92.05371 -158.7323 116.619385c-242.68591 24.565552 -1068.7349 69.91736 -1297.3832 30.774292c-228.64828 -39.143066 -98.80228 -236.47766 -74.50656 -265.63257z" fill-rule="evenodd"/></g></svg>