<svg width="668" height="188" viewBox="0 0 668 188" fill="none" xmlns="http://www.w3.org/2000/svg">
<rect y="0.0800018" width="361.813" height="160.427" rx="27.3067" fill="#5AB7FA"/>
<path d="M116.565 61.7867C116.565 69.0684 114.859 75.7244 111.445 81.7547C108.146 87.6711 103.083 92.4498 96.256 96.0907C89.5431 99.6178 81.2942 101.381 71.5093 101.381H54.9547V142H21.504V21.68H71.5093C81.1804 21.68 89.3724 23.3867 96.0853 26.8C102.912 30.2133 108.032 34.9351 111.445 40.9653C114.859 46.9955 116.565 53.936 116.565 61.7867ZM68.2667 74.7573C77.7102 74.7573 82.432 70.4338 82.432 61.7867C82.432 53.0258 77.7102 48.6453 68.2667 48.6453H54.9547V74.7573H68.2667ZM192.98 45.4027C203.903 45.4027 212.55 49.1004 218.921 56.496C225.407 63.7778 228.649 73.6764 228.649 86.192V142H195.199V90.6293C195.199 85.168 193.776 80.9013 190.932 77.8293C188.088 74.6436 184.276 73.0507 179.497 73.0507C174.491 73.0507 170.566 74.6436 167.721 77.8293C164.877 80.9013 163.455 85.168 163.455 90.6293V142H130.004V15.7067H163.455V59.9093C166.413 55.5858 170.395 52.1155 175.401 49.4987C180.521 46.768 186.381 45.4027 192.98 45.4027ZM291.548 143.195C281.991 143.195 273.4 141.204 265.777 137.221C258.268 133.239 252.352 127.55 248.028 120.155C243.704 112.759 241.543 104.055 241.543 94.0427C241.543 84.144 243.704 75.4969 248.028 68.1013C252.465 60.7058 258.439 55.0169 265.948 51.0347C273.571 47.0524 282.161 45.0613 291.719 45.0613C301.276 45.0613 309.809 47.0524 317.319 51.0347C324.942 55.0169 330.915 60.7058 335.239 68.1013C339.676 75.4969 341.895 84.144 341.895 94.0427C341.895 103.941 339.676 112.645 335.239 120.155C330.915 127.55 324.942 133.239 317.319 137.221C309.696 141.204 301.105 143.195 291.548 143.195ZM291.548 114.181C296.213 114.181 300.081 112.475 303.153 109.061C306.339 105.534 307.932 100.528 307.932 94.0427C307.932 87.5573 306.339 82.608 303.153 79.1947C300.081 75.7813 296.27 74.0747 291.719 74.0747C287.168 74.0747 283.356 75.7813 280.284 79.1947C277.212 82.608 275.676 87.5573 275.676 94.0427C275.676 100.642 277.155 105.648 280.113 109.061C283.072 112.475 286.883 114.181 291.548 114.181Z" fill="white"/>
<path d="M439.808 113.499V142H425.301C400.839 142 388.608 129.883 388.608 105.648V74.0747H376.832V46.256H388.608V23.0453H422.229V46.256H439.637V74.0747H422.229V106.16C422.229 108.777 422.798 110.654 423.936 111.792C425.188 112.93 427.236 113.499 430.08 113.499H439.808ZM499.695 143.195C490.137 143.195 481.547 141.204 473.924 137.221C466.415 133.239 460.498 127.55 456.175 120.155C451.851 112.759 449.689 104.055 449.689 94.0427C449.689 84.144 451.851 75.4969 456.175 68.1013C460.612 60.7058 466.585 55.0169 474.095 51.0347C481.718 47.0524 490.308 45.0613 499.865 45.0613C509.423 45.0613 517.956 47.0524 525.465 51.0347C533.088 55.0169 539.062 60.7058 543.385 68.1013C547.823 75.4969 550.041 84.144 550.041 94.0427C550.041 103.941 547.823 112.645 543.385 120.155C539.062 127.55 533.088 133.239 525.465 137.221C517.842 141.204 509.252 143.195 499.695 143.195ZM499.695 114.181C504.36 114.181 508.228 112.475 511.3 109.061C514.486 105.534 516.079 100.528 516.079 94.0427C516.079 87.5573 514.486 82.608 511.3 79.1947C508.228 75.7813 504.416 74.0747 499.865 74.0747C495.314 74.0747 491.503 75.7813 488.431 79.1947C485.359 82.608 483.823 87.5573 483.823 94.0427C483.823 100.642 485.302 105.648 488.26 109.061C491.218 112.475 495.03 114.181 499.695 114.181ZM597.101 59.568C599.718 55.1307 603.416 51.6036 608.195 48.9867C612.973 46.3698 618.605 45.0613 625.091 45.0613C632.714 45.0613 639.597 47.0524 645.741 51.0347C651.999 55.0169 656.892 60.7058 660.419 68.1013C664.06 75.4969 665.88 84.144 665.88 94.0427C665.88 103.941 664.06 112.645 660.419 120.155C656.892 127.55 651.999 133.239 645.741 137.221C639.597 141.204 632.714 143.195 625.091 143.195C618.605 143.195 612.973 141.886 608.195 139.269C603.53 136.652 599.832 133.125 597.101 128.688V187.739H563.651V46.256H597.101V59.568ZM631.917 94.0427C631.917 87.7849 630.211 82.9493 626.797 79.536C623.498 76.0089 619.402 74.2453 614.509 74.2453C609.617 74.2453 605.464 76.0089 602.051 79.536C598.751 83.0631 597.101 87.8987 597.101 94.0427C597.101 100.3 598.751 105.193 602.051 108.72C605.464 112.247 609.617 114.011 614.509 114.011C619.402 114.011 623.498 112.247 626.797 108.72C630.211 105.079 631.917 100.187 631.917 94.0427Z" fill="#5AB7FA"/>
</svg>
