<svg version="1.1" viewBox="0.0 0.0 1120.267716535433 830.9055118110236" fill="none" stroke="none" stroke-linecap="square" stroke-miterlimit="10" xmlns:xlink="http://www.w3.org/1999/xlink" xmlns="http://www.w3.org/2000/svg"><clipPath id="p.0"><path d="m0 0l1120.2677 0l0 830.9055l-1120.2677 0l0 -830.9055z" clip-rule="nonzero"/></clipPath><g clip-path="url(#p.0)"><path fill="#000000" fill-opacity="0.0" d="m0 0l1120.2677 0l0 830.9055l-1120.2677 0z" fill-rule="evenodd"/><path fill="#000000" fill-opacity="0.0" d="m30.774279 183.35432l1094.3622 0l0 237.54332l-1094.3622 0z" fill-rule="evenodd"/><path fill="#ffffff" d="m89.4149 365.15433l0 -67.09375l3.625 14.96875l-59.15625 -116.281265l46.234375 0l24.9375 54.390625l10.203125 26.750015l-5.671875 0l8.609375 -26.750015l25.390625 -54.390625l44.640625 0l-59.609375 116.500015l3.859375 -15.1875l0 67.09375l-43.0625 0zm149.13876 1.8125q-17.453125 0 -29.640625 -5.375q-12.1875 -5.390625 -19.546875 -14.796875q-7.359375 -9.40625 -10.65625 -21.578125q-3.28125 -12.1875 -3.171875 -25.796875q0.34375 -20.171875 8.71875 -34.0q8.390625 -13.82814 23.015625 -20.95314q14.625 -7.140625 33.546875 -7.140625q23.343765 0 37.218765 9.296875q13.890625 9.28125 19.890625 24.57814q6.015625 15.296875 5.671875 33.4375q-0.21875 20.28125 -8.5625 34.171875q-8.328125 13.875 -22.953125 21.015625q-14.609375 7.140625 -33.531265 7.140625zm0.90625 -28.328125q12.125 0 16.82814 -8.890625q4.703125 -8.90625 4.703125 -26.921875q0 -10.203125 -1.9375 -18.640625q-1.921875 -8.453125 -6.4531403 -13.484375q-4.53125 -5.046875 -12.46875 -5.046875q-12.34375 0 -17.171875 8.953125q-4.8125 8.953125 -4.8125 26.171875q0 10.4375 1.984375 19.046875q1.984375 8.609375 6.625 13.71875q4.65625 5.09375 12.703125 5.09375zm127.37904 28.328125q-13.828125 0 -22.28125 -3.96875q-8.4375 -3.96875 -12.796875 -11.21875q-4.359375 -7.25 -5.84375 -17.046875q-1.46875 -9.8125 -1.46875 -21.484375l0 -74.343765l40.796875 0l0 75.250015q0 9.515625 1.8125 14.5625q1.828125 5.046875 5.5625 6.921875q3.734375 1.859375 9.40625 1.859375q3.734375 0 7.296875 -0.953125q3.578125 -0.96875 6.359375 -2.328125q2.78125 -1.359375 4.25 -2.609375l0 -92.70314l41.015625 0l0 128.06252l-29.6875 0q-3.84375 0 -5.78125 -1.25q-1.921875 -1.25 -1.921875 -5.328125l0 -7.921875l0.90625 2.03125q-4.421875 3.625 -10.890625 6.46875q-6.453125 2.828125 -13.53125 4.40625q-7.078125 1.59375 -13.203125 1.59375zm144.37338 -76.15625l-1.578125 -29.6875q2.265625 -6.9218903 7.640625 -12.35939q5.390625 -5.4375 12.921875 -8.546875q7.546875 -3.125 16.375 -3.125q2.71875 0 5.4375 0.34375q2.734375 0.34375 3.859375 1.015625l0 40.57814q-1.46875 -1.03125 -4.640625 -2.09375q-3.171875 -1.078125 -8.953125 -1.078125q-9.0625 0 -15.25 2.671875q-6.171875 2.65625 -9.96875 6.171875q-3.796875 3.5 -5.84375 6.109375zm-38.53125 74.34375l0 -126.250015l35.8125 0l2.046875 22.437515l3.171875 3.40625l0 100.40625l-41.03125 0z" fill-rule="nonzero"/><path fill="#000000" fill-opacity="0.0" d="m30.774279 375.35434l1114.3622 0l0 237.5433l-1114.3622 0z" fill-rule="evenodd"/><path fill="#7dcbff" d="m57.899277 557.1543l0 -168.40622l42.390625 0l0 68.21875l57.796875 0l0 -68.21875l42.15625 0l0 168.40622l-42.15625 0l0 -69.81247l-57.796875 0l0 69.81247l-42.390625 0zm211.02715 1.8125q-12.46875 0 -21.703125 -5.15625q-9.234375 -5.15625 -14.28125 -14.28125q-5.046875 -9.125 -5.046875 -20.90625q0 -11.1093445 6.0625 -19.328094q6.0625 -8.21875 16.609375 -12.625q7.59375 -3.296875 16.546875 -4.9375q8.953125 -1.640625 17.953125 -2.203125q9.0156555 -0.578125 16.953156 -0.578125l5.890625 7.265625l-5.890625 12.453125q-3.96875 0.125 -8.21875 0.640625q-4.25 0.5 -8.0000305 1.359375q-3.734375 0.84375 -6.0 1.859375q-3.515625 1.46875 -6.640625 4.359375q-3.109375 2.890625 -3.109375 9.6874695q0 8.953125 4.921875 12.984375q4.9375 4.015625 11.171875 4.015625q3.2969055 0 6.5156555 -0.78125q3.234375 -0.796875 5.71875 -1.984375q2.5 -1.1875 3.640625 -2.4375l6.5625 8.375l-4.53125 9.75q-5.203125 4.53125 -13.765625 8.5q-8.5625305 3.96875 -21.359406 3.96875zm73.890656 -1.8125l-38.765625 0l0 -18.8125l-2.03125 0l0 -66.859344q0 -8.390625 -4.59375 -11.0q-4.59375 -2.609375 -13.0937805 -2.609375q-7.25 0 -15.125 1.140625q-7.875 1.125 -15.25 3.109375q-7.359375 1.984375 -12.90625 4.59375l-8.390625 -24.03125q4.640625 -2.828125 13.421875 -6.046875q8.78125 -3.234375 19.78125 -5.5q11.0 -2.265625 22.328156 -2.265625q19.828125 0 31.84375 4.640625q12.015625 4.640625 17.390625 15.078125q5.390625 10.421875 5.390625 27.875l0 80.68747zm31.721985 0l0 -126.24997l37.40625 0l0.90625 14.734375q3.96875 -3.96875 10.421875 -7.703125q6.46875 -3.75 14.390625 -6.234375q7.9375 -2.5 16.4375 -2.609375q19.265625 -0.34375 28.890625 10.484375q9.640625 10.828125 9.640625 38.015625l0 79.56247l-41.03125 0l0 -72.078094q0 -13.828125 -3.515625 -18.984375q-3.5 -5.15625 -12.5625 -4.8125q-2.953125 0 -6.578125 0.90625q-3.625 0.90625 -7.203125 2.71875q-3.5625 1.8125 -6.390625 4.53125l0 87.71872l-40.8125 0zm203.77264 57.125q-33.4375 -0.34375 -48.109375 -10.609375q-14.671875 -10.25 -14.671875 -27.703125q0 -6.453125 3.0 -11.734375q3.0 -5.265625 8.890625 -9.109375q5.890625 -3.859375 14.625 -6.125l21.984375 1.359375q-1.59375 1.25 -3.859375 3.578125q-2.265625 2.3125 -3.96875 5.9375q-1.6875 3.625 -1.6875 8.84375q0 5.65625 2.09375 11.03125q2.09375 5.390625 7.703125 8.84375q5.609375 3.46875 16.265625 3.46875q8.265625 0 14.78125 -1.875q6.53125 -1.859375 10.265625 -5.953125q3.734375 -4.078125 3.734375 -10.765625q0 -4.859375 -1.703125 -8.828125q-1.6875 -3.96875 -6.84375 -6.296875q-5.15625 -2.328125 -15.46875 -2.328125l-27.4375 0q-2.828125 0 -4.765625 -0.90625q-1.921875 -0.90625 -4.515625 -1.359375q-2.84375 -0.671875 -3.40625 -1.125q-0.5625 -0.453125 -3.625 -0.90625q-8.5 -1.703125 -12.703125 -5.4375q-4.1875 -3.75 -4.078125 -11.34375q0.125 -4.40625 1.59375 -9.390625q1.46875 -5.0 5.9375 -9.578125q4.484375 -4.5937195 13.5625 -7.7655945l21.984375 3.171875q-4.875 1.8124695 -6.859375 5.2655945q-1.984375 3.453125 -1.984375 6.515625q0 4.53125 3.5625 6.34375q3.578125 1.8125 12.53125 1.8125l22.890625 0q14.734375 0 24.53125 2.71875q9.8125 2.71875 15.578125 7.421875q5.78125 4.703125 8.21875 10.828125q2.4375 6.125 2.4375 12.8125q0 12.578125 -5.84375 21.859375q-5.828125 9.296875 -15.859375 15.359375q-10.03125 6.0625 -22.671875 9.0625q-12.625 3.015625 -26.109375 2.90625zm-2.5 -99.515625q-16.875 0 -29.46875 -4.8124695q-12.578125 -4.8125 -19.546875 -14.21875q-6.96875 -9.40625 -6.96875 -23.125q0 -13.703125 6.734375 -23.390625q6.75 -9.703125 19.265625 -14.796875q12.53125 -5.09375 29.984375 -5.09375q17.796875 0 30.546875 5.046875q12.75 5.03125 19.546875 14.5625q6.796875 9.515625 6.796875 23.0q0 13.703125 -6.125 23.28125q-6.109375 9.578125 -18.75 14.5625q-12.625 4.9843445 -32.015625 4.9843445zm0.234375 -21.296844q8.71875 0 14.09375 -4.078125q5.390625 -4.078125 5.390625 -17.0q0 -9.859375 -4.765625 -14.78125q-4.75 -4.9375 -14.265625 -4.9375q-5.890625 0 -9.75 1.765625q-3.859375 1.75 -5.78125 6.0q-1.921875 4.25 -1.921875 11.71875q0 8.84375 3.671875 15.078125q3.6875 6.234375 13.328125 6.234375zm41.015625 -34.234375l-4.078125 -17.21875q2.046875 -2.953125 8.5625 -7.03125q6.515625 -4.078125 16.140625 -4.078125l16.328125 0l0 28.328125l-36.953125 0zm107.217224 99.734344q-17.453125 0 -29.640625 -5.375q-12.1875 -5.390625 -19.546875 -14.796875q-7.359375 -9.40625 -10.65625 -21.578125q-3.28125 -12.1874695 -3.171875 -25.796844q0.34375 -20.171875 8.71875 -34.0q8.390625 -13.828125 23.015625 -20.953125q14.625 -7.140625 33.546875 -7.140625q23.34375 0 37.21875 9.296875q13.890625 9.28125 19.890625 24.578125q6.015625 15.296875 5.671875 33.4375q-0.21875 20.28122 -8.5625 34.171844q-8.328125 13.875 -22.953125 21.015625q-14.609375 7.140625 -33.53125 7.140625zm0.90625 -28.328125q12.125 0 16.828125 -8.890625q4.703125 -8.90625 4.703125 -26.921844q0 -10.203125 -1.9375 -18.640625q-1.921875 -8.453125 -6.453125 -13.484375q-4.53125 -5.046875 -12.46875 -5.046875q-12.34375 0 -17.171875 8.953125q-4.8125 8.953125 -4.8125 26.171875q0 10.4375 1.984375 19.046875q1.984375 8.6093445 6.625 13.7187195q4.65625 5.09375 12.703125 5.09375zm127.37903 28.328125q-13.828125 0 -22.28125 -3.96875q-8.4375 -3.96875 -12.796875 -11.21875q-4.359375 -7.25 -5.84375 -17.046875q-1.46875 -9.8125 -1.46875 -21.484344l0 -74.34375l40.796875 0l0 75.25q0 9.5155945 1.8125 14.5624695q1.828125 5.046875 5.5625 6.921875q3.734375 1.859375 9.40625 1.859375q3.734375 0 7.296875 -0.953125q3.578125 -0.96875 6.359375 -2.328125q2.78125 -1.359375 4.25 -2.609375l0 -92.703094l41.015625 0l0 128.06247l-29.6875 0q-3.84375 0 -5.78125 -1.25q-1.921875 -1.25 -1.921875 -5.328125l0 -7.921875l0.90625 2.03125q-4.421875 3.625 -10.890625 6.46875q-6.453125 2.828125 -13.53125 4.40625q-7.078125 1.59375 -13.203125 1.59375zm147.32648 0q-13.59375 0 -21.703125 -4.53125q-8.109375 -4.53125 -11.671875 -13.65625q-3.5625 -9.125 -3.5625 -22.84375l0 -60.06247l-14.515625 0l0 -21.75q8.390625 -2.390625 13.828125 -4.9375q5.4375 -2.546875 7.9375 -7.765625q1.25 -2.59375 2.71875 -6.21875q1.46875 -3.640625 3.046875 -7.59375q1.59375 -3.96875 3.0625 -7.484375l24.9375 0l0 28.78125l32.640564 0l0 26.96875l-32.640564 0l0 44.890625q0 11.7812195 1.296875 17.21872q1.3125 5.4375 4.484375 6.921875q3.171875 1.46875 8.734375 1.46875q2.828125 0 6.453064 -0.734375q3.625 -0.75 6.90625 -1.875q3.296875 -1.140625 5.21875 -2.375l4.765625 22.65625q-2.953125 2.953125 -9.359375 5.953125q-6.40625 3.0 -14.906189 4.984375q-8.484375 1.984375 -17.671875 1.984375z" fill-rule="nonzero"/></g></svg>