<?xml version="1.0" encoding="UTF-8"?>
<svg xmlns="http://www.w3.org/2000/svg" xmlns:xlink="http://www.w3.org/1999/xlink" viewBox="0 0 24 24" width="24px" height="24px">
<g id="surface265841348">
<path style=" stroke:none;fill-rule:nonzero;fill:rgb(100%,100%,100%);fill-opacity:1;" d="M 10.679688 0.121094 C 5.160156 0.71875 0.71875 5.160156 0.121094 10.558594 C -0.480469 16.199219 2.761719 21.238281 7.679688 23.160156 C 8.039062 23.28125 8.398438 23.039062 8.398438 22.558594 L 8.398438 20.640625 C 8.398438 20.640625 7.921875 20.761719 7.320312 20.761719 C 5.640625 20.761719 4.921875 19.320312 4.800781 18.480469 C 4.679688 18 4.441406 17.640625 4.078125 17.28125 C 3.71875 17.160156 3.601562 17.160156 3.601562 17.039062 C 3.601562 16.800781 3.960938 16.800781 4.078125 16.800781 C 4.800781 16.800781 5.398438 17.640625 5.640625 18 C 6.238281 18.960938 6.960938 19.199219 7.320312 19.199219 C 7.800781 19.199219 8.160156 19.078125 8.398438 18.960938 C 8.519531 18.121094 8.878906 17.28125 9.601562 16.800781 C 6.839844 16.199219 4.800781 14.640625 4.800781 12 C 4.800781 10.679688 5.398438 9.359375 6.238281 8.398438 C 6.121094 8.160156 6 7.558594 6 6.71875 C 6 6.238281 6 5.519531 6.359375 4.800781 C 6.359375 4.800781 8.039062 4.800781 9.71875 6.359375 C 10.320312 6.121094 11.160156 6 12 6 C 12.839844 6 13.679688 6.121094 14.398438 6.359375 C 15.960938 4.800781 17.761719 4.800781 17.761719 4.800781 C 18 5.519531 18 6.238281 18 6.71875 C 18 7.679688 17.878906 8.160156 17.761719 8.398438 C 18.601562 9.359375 19.199219 10.558594 19.199219 12 C 19.199219 14.640625 17.160156 16.199219 14.398438 16.800781 C 15.121094 17.398438 15.601562 18.480469 15.601562 19.558594 L 15.601562 22.679688 C 15.601562 23.039062 15.960938 23.398438 16.441406 23.28125 C 20.878906 21.480469 24 17.160156 24 12.121094 C 24 4.921875 17.878906 -0.71875 10.679688 0.121094 Z M 10.679688 0.121094 "/>
</g>
</svg>
