<?xml version="1.0" encoding="UTF-8"?>
<svg xmlns="http://www.w3.org/2000/svg" xmlns:xlink="http://www.w3.org/1999/xlink" viewBox="0 0 24 24" width="24px" height="24px">
<g id="surface265776115">
<path style="stroke:none;fill-rule:nonzero;fill:#ffffff;fill-opacity:1;" d="M 6.800781 0.300781 C 3.214844 0.300781 0.300781 3.214844 0.300781 6.800781 L 0.300781 17.199219 C 0.300781 20.785156 3.214844 23.699219 6.800781 23.699219 L 17.199219 23.699219 C 20.785156 23.699219 23.699219 20.785156 23.699219 17.199219 L 23.699219 6.800781 C 23.699219 3.214844 20.785156 0.300781 17.199219 0.300781 Z M 6.800781 2.898438 L 17.199219 2.898438 C 19.351562 2.898438 21.101562 4.648438 21.101562 6.800781 L 21.101562 17.199219 C 21.101562 19.351562 19.351562 21.101562 17.199219 21.101562 L 6.800781 21.101562 C 4.648438 21.101562 2.898438 19.351562 2.898438 17.199219 L 2.898438 6.800781 C 2.898438 4.648438 4.648438 2.898438 6.800781 2.898438 Z M 18.5 4.199219 C 17.78125 4.199219 17.199219 4.78125 17.199219 5.5 C 17.199219 6.21875 17.78125 6.800781 18.5 6.800781 C 19.21875 6.800781 19.800781 6.21875 19.800781 5.5 C 19.800781 4.78125 19.21875 4.199219 18.5 4.199219 Z M 12 5.5 C 8.414062 5.5 5.5 8.414062 5.5 12 C 5.5 15.585938 8.414062 18.5 12 18.5 C 15.585938 18.5 18.5 15.585938 18.5 12 C 18.5 8.414062 15.585938 5.5 12 5.5 Z M 12 8.101562 C 14.148438 8.101562 15.898438 9.851562 15.898438 12 C 15.898438 14.148438 14.148438 15.898438 12 15.898438 C 9.851562 15.898438 8.101562 14.148438 8.101562 12 C 8.101562 9.851562 9.851562 8.101562 12 8.101562 Z M 12 8.101562 "/>
</g>
</svg>
