<?xml version="1.0" encoding="UTF-8"?>
<svg xmlns="http://www.w3.org/2000/svg" xmlns:xlink="http://www.w3.org/1999/xlink" viewBox="0 0 30 30" width="30px" height="30px">
<g id="surface265833133">
<path style="stroke:none;fill-rule:nonzero;fill:rgb(100%,100%,100%);fill-opacity:1;" d="M 26.699219 0.699219 L 3.300781 0.699219 C 1.863281 0.699219 0.699219 1.863281 0.699219 3.300781 L 0.699219 26.699219 C 0.699219 28.136719 1.863281 29.300781 3.300781 29.300781 L 26.699219 29.300781 C 28.136719 29.300781 29.300781 28.136719 29.300781 26.699219 L 29.300781 3.300781 C 29.300781 1.863281 28.136719 0.699219 26.699219 0.699219 Z M 9.738281 24.101562 L 5.90625 24.101562 L 5.90625 11.761719 L 9.738281 11.761719 Z M 7.785156 9.996094 C 6.546875 9.996094 5.546875 8.992188 5.546875 7.761719 C 5.546875 6.527344 6.546875 5.527344 7.785156 5.527344 C 9.015625 5.527344 10.019531 6.527344 10.019531 7.761719 C 10.019531 8.992188 9.015625 9.996094 7.785156 9.996094 Z M 24.105469 24.101562 L 20.273438 24.101562 L 20.273438 18.097656 C 20.273438 16.667969 20.246094 14.828125 18.28125 14.828125 C 16.285156 14.828125 15.976562 16.386719 15.976562 17.996094 L 15.976562 24.101562 L 12.144531 24.101562 L 12.144531 11.761719 L 15.824219 11.761719 L 15.824219 13.445312 L 15.875 13.445312 C 16.386719 12.476562 17.640625 11.453125 19.503906 11.453125 C 23.386719 11.453125 24.105469 14.007812 24.105469 17.332031 Z M 24.105469 24.101562 "/>
</g>
</svg>
