<?xml version="1.0" encoding="UTF-8"?>
<svg xmlns="http://www.w3.org/2000/svg" xmlns:xlink="http://www.w3.org/1999/xlink" viewBox="0 0 50 50" width="50px" height="50px">
<g id="surface13112455">
<path style="stroke:none;fill-rule:nonzero;fill:rgb(100%,100%,100%);fill-opacity:1;" d="M 25 2 C 12.316406 2 2 12.316406 2 25 C 2 34.882812 8.269531 43.332031 17.035156 46.578125 C 16.785156 44.324219 16.824219 40.636719 17.238281 38.851562 C 17.628906 37.175781 19.761719 28.164062 19.761719 28.164062 C 19.761719 28.164062 19.117188 26.878906 19.117188 24.972656 C 19.117188 21.984375 20.851562 19.753906 23.007812 19.753906 C 24.84375 19.753906 25.726562 21.128906 25.726562 22.78125 C 25.726562 24.628906 24.554688 27.382812 23.945312 29.9375 C 23.441406 32.082031 25.019531 33.824219 27.128906 33.824219 C 30.953125 33.824219 33.886719 29.796875 33.886719 23.980469 C 33.886719 18.832031 30.191406 15.234375 24.910156 15.234375 C 18.792969 15.234375 15.203125 19.820312 15.203125 24.5625 C 15.203125 26.410156 15.914062 28.394531 16.800781 29.472656 C 16.976562 29.683594 17.003906 29.871094 16.949219 30.085938 C 16.789062 30.765625 16.425781 32.226562 16.355469 32.527344 C 16.261719 32.921875 16.042969 33.003906 15.636719 32.8125 C 12.949219 31.5625 11.269531 27.636719 11.269531 24.484375 C 11.269531 17.703125 16.199219 11.472656 25.476562 11.472656 C 32.9375 11.472656 38.730469 16.785156 38.730469 23.890625 C 38.730469 31.300781 34.058594 37.261719 27.574219 37.261719 C 25.394531 37.261719 23.347656 36.132812 22.648438 34.792969 C 22.648438 34.792969 21.570312 38.898438 21.308594 39.90625 C 20.855469 41.644531 18.917969 45.25 17.945312 46.890625 C 20.171875 47.609375 22.539062 48 25 48 C 37.683594 48 48 37.683594 48 25 C 48 12.316406 37.683594 2 25 2 Z M 25 2 "/>
</g>
</svg>
