<svg xmlns="http://www.w3.org/2000/svg" xmlns:xlink="http://www.w3.org/1999/xlink" version="1.1" width="256" height="256" viewBox="0 0 256 256" xml:space="preserve">
<desc>Created with Fabric.js 1.7.22</desc>
<defs>
</defs>
<g transform="translate(128 128) scale(0.72 0.72)" style="">
	<g style="stroke: none; stroke-width: 0; stroke-dasharray: none; stroke-linecap: butt; stroke-linejoin: miter; stroke-miterlimit: 10; fill: none; fill-rule: nonzero; opacity: 1;" transform="translate(-175.05 -175.05000000000004) scale(3.89 3.89)" >
	<path d="M 84.494 22.535 c -5.144 0 -9.891 -1.704 -13.702 -4.579 c -4.371 -3.296 -7.512 -8.13 -8.621 -13.702 C 61.895 2.877 61.748 1.456 61.733 0 H 47.038 v 40.154 l -0.018 21.994 c 0 5.88 -3.829 10.866 -9.137 12.619 c -1.54 0.509 -3.204 0.75 -4.937 0.655 c -2.211 -0.121 -4.283 -0.789 -6.084 -1.866 c -3.833 -2.292 -6.431 -6.451 -6.502 -11.208 c -0.111 -7.435 5.9 -13.496 13.329 -13.496 c 1.467 0 2.875 0.239 4.194 0.674 V 38.552 v -3.945 c -1.391 -0.206 -2.806 -0.313 -4.238 -0.313 c -8.132 0 -15.737 3.38 -21.174 9.47 c -4.109 4.602 -6.574 10.473 -6.954 16.63 c -0.498 8.088 2.461 15.776 8.201 21.449 c 0.843 0.833 1.729 1.606 2.655 2.319 C 21.294 87.947 27.31 90 33.646 90 c 1.431 0 2.847 -0.106 4.238 -0.312 c 5.919 -0.877 11.38 -3.586 15.69 -7.847 c 5.296 -5.234 8.222 -12.183 8.253 -19.579 l -0.076 -32.844 c 2.526 1.949 5.289 3.562 8.253 4.813 c 4.611 1.945 9.5 2.931 14.531 2.93 V 26.491 v -3.959 C 84.539 22.535 84.497 22.535 84.494 22.535 L 84.494 22.535 z" style="stroke: none; stroke-width: 1; stroke-dasharray: none; stroke-linecap: butt; stroke-linejoin: miter; stroke-miterlimit: 10; fill: rgb(255,255,255); fill-rule: nonzero; opacity: 1;" transform=" matrix(1 0 0 1 0 0) " stroke-linecap="round" />
</g>
</g>
</svg>