<?xml version="1.0" encoding="UTF-8"?>
<svg xmlns="http://www.w3.org/2000/svg" xmlns:xlink="http://www.w3.org/1999/xlink" viewBox="0 0 50 50" width="50px" height="50px">
<g id="surface265837242">
<path style="stroke:none;fill-rule:nonzero;fill:rgb(100%,100%,100%);fill-opacity:1;" d="M 25 2 C 20.710938 2 16.617188 3.199219 13.226562 5.300781 C 13.007812 5.375 12.628906 5.660156 12.285156 5.964844 C 15.332031 3.546875 22.371094 8.394531 24.425781 9.835938 C 24.773438 10.078125 25.226562 10.078125 25.574219 9.835938 C 27.628906 8.394531 34.671875 3.546875 37.714844 5.964844 C 37.371094 5.660156 36.992188 5.375 36.773438 5.300781 C 33.382812 3.199219 29.289062 2 25 2 Z M 11 8 C 9.402344 8 8.238281 9.300781 8.238281 9.300781 C 4.445312 13.402344 2.050781 18.898438 2.050781 25 C 2.050781 37.699219 12.328125 48 25 48 C 31.683594 48 37.773438 45.101562 41.964844 40.5 C 41.964844 40.5 41.464844 37.5 38.371094 33.097656 C 34.910156 27.882812 27.90625 21.3125 25.664062 19.292969 C 25.277344 18.949219 24.707031 18.953125 24.328125 19.300781 C 22.636719 20.847656 18.277344 25.179688 17.316406 26.300781 C 15.019531 28.699219 8.636719 36.300781 8.238281 40.597656 C 8.238281 40.597656 6.839844 37.199219 9.933594 29.398438 C 11.855469 24.714844 17.835938 17.746094 20.734375 14.707031 C 21.121094 14.304688 21.109375 13.667969 20.703125 13.285156 C 19.742188 12.386719 17.503906 10.8125 15.488281 9.597656 C 14.09375 8.699219 12.496094 8.101562 11 8 Z M 38.691406 8 C 38.035156 8 33.792969 9.34375 29.332031 13.300781 C 28.90625 13.671875 28.890625 14.324219 29.285156 14.730469 C 30.898438 16.402344 35.324219 20.679688 37.972656 24.902344 C 41.265625 30.300781 43.261719 34.601562 42.0625 40.5 C 45.753906 36.398438 48.050781 31 48.050781 25 C 47.949219 19 45.65625 13.5 41.863281 9.398438 C 41.761719 9.300781 41.664062 9.199219 41.566406 9.097656 C 40.765625 8.199219 39.585938 8 38.691406 8 Z M 38.691406 8 "/>
</g>
</svg>
